<?xml version="1.0" encoding="UTF-8" standalone="no"?>
<!-- Created with Inkscape (http://www.inkscape.org/) -->

<svg
   width="112.85962mm"
   height="132.25398mm"
   viewBox="0 0 112.85962 132.25398"
   version="1.1"
   id="svg5"
   xml:space="preserve"
   xmlns:inkscape="http://www.inkscape.org/namespaces/inkscape"
   xmlns:sodipodi="http://sodipodi.sourceforge.net/DTD/sodipodi-0.dtd"
   xmlns="http://www.w3.org/2000/svg"
   xmlns:svg="http://www.w3.org/2000/svg"><sodipodi:namedview
     id="namedview7"
     pagecolor="#ffffff"
     bordercolor="#666666"
     borderopacity="1.0"
     inkscape:showpageshadow="2"
     inkscape:pageopacity="0.0"
     inkscape:pagecheckerboard="0"
     inkscape:deskcolor="#d1d1d1"
     inkscape:document-units="mm"
     showgrid="false" /><defs
     id="defs2" /><g
     inkscape:label="Layer 1"
     inkscape:groupmode="layer"
     id="layer1"
     transform="translate(-35.185273,-134.10264)"><path
       style="fill:#040000;fill-opacity:0.642873;stroke-width:0.264583"
       d="m 39.7574,222.60911 c 0.870596,2.06949 3.327667,6.55925 4.805407,8.78083 5.29993,7.96771 12.287193,14.2491 20.7552,18.65849 2.011151,1.04723 4.560188,2.2383 5.664538,2.64684 l 2.007907,0.74278 -3.631547,1.28869 c -3.553531,1.26099 -3.649805,1.31262 -4.481069,2.4026 -2.417915,3.17047 -1.012624,7.60669 2.78934,8.80569 l 1.336964,0.4216 12.674886,-4.01346 12.674899,-4.01346 0.769041,-1.00222 c 0.422979,-0.55122 0.920089,-1.51126 1.104689,-2.13342 l 0.335717,-1.13115 -4.012477,-12.67181 -4.012496,-12.67181 -1.114247,-0.85059 c -3.169037,-2.41915 -7.605897,-1.01463 -8.806234,2.78763 l -0.421821,1.3362 1.841249,6.07885 c 1.613689,5.32738 1.787877,6.07563 1.40928,6.05299 -0.237607,-0.0142 -1.630266,-0.3898 -3.094803,-0.83468 -21.192252,-6.43723 -34.559145,-27.42024 -31.491114,-49.43399 1.400484,-10.0488 6.453456,-19.75348 13.837658,-26.57651 1.996008,-1.84431 6.823601,-5.49473 7.600882,-5.74746 0.175697,-0.0566 0.82101,-0.56425 1.434365,-1.12696 2.604722,-2.38986 2.232842,-6.69907 -0.744538,-8.62754 -2.334294,-1.51194 -4.133658,-1.31409 -7.601434,0.83562 -11.550525,7.16041 -20.242926,18.69484 -24.044993,31.90662 -2.429716,8.44297 -2.823021,18.00245 -1.099098,26.71343 0.435731,2.20176 2.594518,9.191 3.51383,11.37623 z m 72.65294,24.17492 c 0.97997,1.58047 2.37658,2.531 4.10214,2.79193 1.67886,0.25386 2.51998,-0.019 5.22133,-1.6935 11.63128,-7.21016 20.29942,-18.69857 24.10036,-31.94174 3.103,-10.81136 2.93857,-21.80986 -0.48785,-32.63079 -4.06464,-12.83652 -12.2048,-23.43648 -23.57967,-30.70502 -2.83109,-1.80907 -7.35206,-4.09656 -9.80291,-4.96 -0.74661,-0.26304 -1.38523,-0.55368 -1.41914,-0.64589 -0.0344,-0.092 1.50645,-0.70484 3.42306,-1.36143 3.42015,-1.17161 3.50046,-1.21442 4.3342,-2.30768 2.41789,-3.1705 1.01258,-7.60669 -2.78933,-8.80569 l -1.33692,-0.42158 -12.65329,4.00662 -12.653318,4.00664 -0.757453,0.97699 c -0.416592,0.53734 -0.920776,1.50877 -1.120392,2.15873 l -0.36293,1.18174 4.006633,12.65332 4.006634,12.65331 1.114253,0.85059 c 3.16903,2.41915 7.605893,1.01462 8.806233,-2.78763 l 0.42182,-1.3362 -1.83446,-6.05674 c -1.00899,-3.33124 -1.74798,-6.08418 -1.64225,-6.11766 0.2325,-0.0736 5.18756,1.40185 6.58612,1.96164 2.23087,0.89209 6.98465,3.45055 9.06411,4.87825 2.85942,1.9632 4.49788,3.35236 7.06292,5.98831 9.67437,9.94184 14.19818,24.43571 11.97919,38.38042 -1.51725,9.535 -6.64774,19.15592 -13.66539,25.62599 -2.28766,2.10916 -5.33752,4.43722 -7.52163,5.74151 -1.76862,1.05615 -2.95824,2.5991 -3.16803,4.10893 -0.21293,1.53246 -0.0138,2.87199 0.56601,3.80706 z"
       id="path302"
       inkscape:export-filename="reload.svg"
       inkscape:export-xdpi="96"
       inkscape:export-ydpi="96" /></g></svg>
